<svg width="156" height="281" viewBox="0 0 156 281" fill="none" xmlns="http://www.w3.org/2000/svg">
<path d="M30.1657 178.26L31.7899 180.696C31.8561 180.796 31.9118 180.901 31.9561 181.012L33.5263 184.938C33.584 185.082 33.6219 185.233 33.6391 185.388L34.4751 192.912V201.531V210.732C34.4751 210.917 34.505 211.101 34.5636 211.277L36.1104 215.917C36.169 216.093 36.2555 216.258 36.3667 216.406L38.2674 218.941C38.5929 219.375 39.1038 219.63 39.6464 219.63H40.4476C41.024 219.63 41.5622 219.342 41.8819 218.863L42.7158 217.612C42.9587 217.247 43.0538 216.804 42.9818 216.372L42.232 211.873L41.3701 204.116L39.6768 197.343C39.6566 197.262 39.6422 197.18 39.6339 197.096L38.8109 188.866C38.7934 188.691 38.7493 188.52 38.6801 188.359L36.2803 182.759C36.2262 182.633 36.1573 182.514 36.0749 182.404L33.7904 179.358C33.6731 179.202 33.5302 179.066 33.3676 178.958L31.0276 177.398L30.1657 178.26Z" fill="#B3C3E6"/>
<path d="M31.8895 174.812V176.536L34.9838 177.71C35.2165 177.798 35.4655 177.835 35.7138 177.818L44.5088 177.211C44.7131 177.197 44.9132 177.147 45.0998 177.063L48.5283 175.514C48.914 175.34 49.222 175.03 49.3939 174.643L50.6098 171.907C50.766 171.556 50.8001 171.162 50.7069 170.789L50.6353 170.503L50.2027 168.772C50.0685 168.235 49.6845 167.796 49.1706 167.59L45.9878 166.317C45.7842 166.235 45.5669 166.194 45.3476 166.194H39.4642C39.3404 166.194 39.2169 166.207 39.096 166.233L35.9105 166.93C35.5387 167.011 35.2042 167.214 34.9593 167.505L32.4393 170.503L30.1657 172.717L31.0276 173.765L33.6132 172.717C34.5574 172.482 36.5686 172.011 37.0608 172.011C37.6759 172.011 39.6464 170.503 40.5083 170.503H43.0939L43.6797 171.089C43.8565 171.266 43.9558 171.505 43.9558 171.755C43.9558 172.052 43.8161 172.332 43.5787 172.51L40.8616 174.547C40.6298 174.721 40.3579 174.834 40.0711 174.875L34.7773 175.631C34.5774 175.66 34.374 175.653 34.1765 175.611L32.8308 175.326C32.5732 175.272 32.3316 175.159 32.1244 174.997L31.8895 174.812Z" fill="#B3C3E6"/>
<path d="M16.0153 172.613C16.2303 171.716 16.3764 170.594 16.5599 169.542L14.8438 168.856C14.7163 168.805 14.5832 168.769 14.4473 168.75L9.0749 167.983C8.77605 167.94 8.47135 167.976 8.19224 168.091C6.65047 168.726 4.07459 169.876 3.44748 170.503C2.5856 171.365 0.861845 174.381 0.861845 174.812C0.861845 175.094 1.2458 177.315 1.54291 178.98C1.6535 179.599 2.09416 180.108 2.693 180.302C4.54604 180.901 7.17936 181.707 7.75688 181.707H12.4972C12.4972 181.337 12.8963 180.088 13.4196 178.682L10.7153 179.069C10.4697 179.104 10.2194 179.085 9.98148 179.015L7.00661 178.133C6.40586 177.954 5.94909 177.464 5.81365 176.853L5.36155 174.81C5.24202 174.27 5.38881 173.706 5.75621 173.292L6.38072 172.59C6.70784 172.222 7.17671 172.011 7.66908 172.011H11.4436L14.4713 172.215C14.5914 172.223 14.7103 172.243 14.8261 172.276L16.0153 172.613Z" fill="#B3C3E6"/>
<path d="M24.9945 173.951L21.5469 172.011L19.0714 170.567C18.9981 170.524 18.9218 170.487 18.843 170.456L16.5599 169.542C16.3764 170.594 16.2303 171.716 16.0153 172.613L20.7304 173.951L24.4199 174.812L24.9945 173.951Z" fill="#B3C3E6"/>
<path d="M24.9945 178.26L24.5785 177.844L19.2268 183.706C19.0521 183.898 18.9224 184.126 18.8507 184.375C18.548 185.426 18.0994 187.131 18.0994 187.741V203.254V213.243C18.0994 213.477 18.052 213.708 17.96 213.922L15.5761 219.485C15.5347 219.581 15.4844 219.674 15.426 219.762L14.2577 221.514C13.9626 221.957 13.8884 222.511 14.0566 223.016L14.259 223.623C14.4936 224.327 15.1524 224.801 15.8943 224.801H16.8306C17.0982 224.801 17.3622 224.739 17.6015 224.619L20.2081 223.316C20.5188 223.161 20.7753 222.915 20.944 222.611L24.8562 215.57C24.9478 215.405 25.0116 215.227 25.0451 215.041C25.6338 211.784 26.7182 205.456 26.7182 204.116C26.7182 202.393 24.1326 191.188 24.9945 189.464C25.656 188.141 25.0573 183.539 24.6314 181.138C24.5969 180.943 24.5945 180.746 24.6258 180.551L24.9945 178.26Z" fill="#B3C3E6"/>
<path d="M72.3978 156.713L72.1346 155.923C71.9416 155.344 71.457 154.911 70.8604 154.783L63.779 153.265L57.7458 152.835H52.9042C51.6451 152.978 48.9547 153.265 48.2652 153.265C47.751 153.265 46.5659 153.585 45.639 153.867C45.1198 154.024 44.6872 154.424 44.2371 154.727C43.9395 154.927 43.5584 155.319 43.0939 156.713C42.8759 157.367 42.232 159.394 42.232 160.735L43.8295 161.8C43.9135 161.856 44.0023 161.905 44.0948 161.945L47.4033 163.393L52.4178 165.273C52.5221 165.312 52.6299 165.341 52.7397 165.359L57.6051 166.17C57.6988 166.186 57.7935 166.194 57.8885 166.193C58.3472 166.192 58.8952 166.181 59.4696 166.159C61.4649 166.08 63.779 165.855 63.779 165.332C63.779 164.47 66.3646 163.608 67.2265 162.746C67.8971 162.076 69.709 159.72 70.6008 158.534C70.6498 158.469 70.703 158.408 70.7607 158.35L72.3978 156.713Z" fill="#B3C3E6"/>
<path d="M131.867 147.232V148.549C131.867 148.817 131.931 149.08 132.042 149.323C132.158 149.578 132.287 149.884 132.402 150.196L133.359 149.892C133.513 149.843 133.659 149.773 133.794 149.683L135.928 148.26C136.093 148.15 136.274 148.07 136.466 148.023C137.698 147.721 139.85 147.232 140.486 147.232C141.348 147.232 141.348 146.082 142.21 146.082H144.925C145.154 146.082 145.597 146.349 146.014 146.646C146.499 146.991 146.718 147.59 146.632 148.178L146.537 148.833C146.525 148.915 146.519 148.998 146.519 149.08V150.249C146.519 151.015 146.014 151.691 145.275 151.893C144.342 152.148 143.335 152.404 143.072 152.404H139.624C139.016 152.404 137.022 152.851 135.771 153.153C135.472 153.226 135.159 153.219 134.864 153.132L132.402 152.404C132.078 152.94 131.578 153.527 131.2 153.927C131.073 154.061 130.921 154.17 130.755 154.252L130.144 154.558L132.253 156.411C132.56 156.681 132.762 157.052 132.821 157.458L133.591 162.746V173.462C133.591 173.951 132.402 181.707 132.402 182.569C132.402 183.242 131.764 189.445 131.423 192.68C131.406 192.835 131.411 192.99 131.437 193.143L132.298 198.318C132.365 198.723 132.575 199.09 132.889 199.354L133.779 200.103C134.203 200.458 134.771 200.589 135.307 200.455L136.595 200.133C137.362 199.941 137.894 199.251 137.959 198.463C138.055 197.307 138.285 195.975 138.762 195.498C139.452 194.808 139.05 188.315 138.762 185.155V175.243L137.921 164.73C137.908 164.558 137.868 164.388 137.804 164.227L136.177 160.16L134.453 156.713H138.762H143.934C145.657 156.426 149.277 155.679 149.967 154.989C150.57 154.386 151.657 153.739 152.304 153.394C152.468 153.307 152.619 153.199 152.75 153.068L154.633 151.185C154.957 150.861 155.138 150.423 155.138 149.966V147.754C155.138 147.414 155.037 147.081 154.849 146.798L152.067 142.625C151.825 142.263 151.455 142.005 151.031 141.904L144.789 140.42C144.558 140.366 144.32 140.359 144.087 140.4C142.385 140.7 139.405 141.199 138.762 141.199C138.073 141.199 136.177 142.923 135.315 143.785L131.867 147.232Z" fill="#B3C3E6"/>
<path d="M125.247 173.382C125.598 173.207 126.021 173.276 126.298 173.553C126.542 173.797 126.627 174.157 126.518 174.484L126.005 176.025C125.894 176.358 125.684 176.649 125.404 176.859L124.111 177.829C123.823 179.122 123.249 181.88 123.249 182.569V189.464C123.249 191.188 122.387 193.774 121.525 194.636C120.924 195.236 119.407 196.317 118.457 196.965C118.209 197.134 118.007 197.362 117.873 197.631L117.601 198.174C117.358 198.659 117.358 199.231 117.601 199.716L117.758 200.03C117.963 200.439 118.32 200.752 118.757 200.886C119.701 201.177 120.984 201.531 121.525 201.531C122.387 201.531 123.487 200.669 124.111 200.669C124.734 200.669 126.836 198.945 127.558 198.945C128.28 198.945 129.282 192.912 129.282 192.05V175.243L129.856 161.453L130.144 154.558L129.852 154.704C129.484 154.888 129.062 154.934 128.663 154.835L126.696 154.343L125.949 155.651C125.873 155.784 125.78 155.906 125.669 156.012C125.417 156.254 125.095 156.54 124.734 156.83V162.746V169.641C124.734 170.331 124.893 172.514 124.972 173.52L125.247 173.382Z" fill="#B3C3E6"/>
<path d="M26.7182 172.227L24.9945 173.951L24.4199 174.812L23.7836 175.767C23.4854 176.214 23.5444 176.81 23.9246 177.19L24.5785 177.844L24.9945 178.26H30.1657L31.0276 177.398L31.8895 176.536V174.812L31.0276 173.765L30.1657 172.717L26.7182 172.227Z" fill="#B3C3E6"/>
<path d="M109.4 156.713L108.597 160.16L108.166 161.453L111.568 162.587C111.879 162.691 112.213 162.704 112.531 162.624L112.906 162.531L116.354 161.669L116.682 161.587C117.029 161.5 117.338 161.306 117.582 161.045C118.573 159.986 120.315 158.437 121.525 158.437C122.474 158.437 123.75 157.62 124.734 156.83C125.095 156.54 125.417 156.254 125.669 156.012C125.78 155.906 125.873 155.784 125.949 155.651L126.696 154.343L126.5 154.294C126.073 154.187 125.702 153.92 125.465 153.549L124.734 152.404C124.239 152.691 123.076 153.265 122.387 153.265C121.525 153.265 119.284 154.127 119.112 154.127C118.939 154.127 116.602 154.989 115.492 154.989H112.906C112.217 154.989 110.342 155.564 109.491 155.851L109.4 156.713Z" fill="#B3C3E6"/>
<path d="M121.813 146.082C121.63 146.265 121.376 146.358 121.119 146.337L118.631 146.129C118.271 146.099 117.93 145.956 117.655 145.721L116.23 144.503L112.906 144.647L109.942 144.591C109.826 145.563 109.781 146.37 109.942 146.37C110.177 146.37 110.123 148.457 110.027 150.196C110.7 150.07 112.217 149.818 112.906 149.818H117.215L121.263 150.173C121.436 150.188 121.612 150.177 121.782 150.139L122.402 150.004C122.935 149.887 123.491 150.029 123.903 150.387L124.734 151.111V150.321C124.734 149.993 124.828 149.671 125.005 149.394L125.5 148.618L123.249 147.232L121.813 146.082Z" fill="#B3C3E6"/>
<path d="M112.534 177.216C112.303 178.438 113.401 179.482 114.623 179.249C115.044 179.169 115.352 179.122 115.492 179.122C115.729 179.122 116.381 178.918 117.215 178.615V176.536V173.462C117.215 173.08 116.664 169.191 116.371 167.178C116.359 167.095 116.354 167.014 116.354 166.931V161.669L112.906 162.531L113.739 169.406C113.758 169.562 113.756 169.72 113.732 169.875L112.906 175.243L112.534 177.216Z" fill="#B3C3E6"/>
<path d="M114.382 186.879L115.492 181.707H112.044L110.32 185.155L108.651 188.493C108.615 188.566 108.584 188.641 108.558 188.719L107.823 190.923C107.765 191.099 107.735 191.283 107.735 191.468V192.912C107.735 193.864 108.507 194.636 109.459 194.636H110.468C110.925 194.636 111.364 194.454 111.687 194.131L113.346 192.472C113.619 192.199 113.793 191.841 113.838 191.457L114.382 186.879Z" fill="#B3C3E6"/>
<path d="M81.2399 154.624C80.8442 154.526 80.443 154.701 80.1547 154.989L79.2928 155.851L80.8476 156.648C80.9313 156.691 81.0113 156.741 81.0869 156.797L84.4641 159.299L88.7735 162.746L90.4972 164.039L91.9425 165.123C92.1263 165.261 92.335 165.361 92.5587 165.413C93.8564 165.715 96.3664 166.194 98.2542 166.194C100.142 166.194 102.652 165.715 103.95 165.413C104.173 165.361 104.382 165.261 104.566 165.123L106.873 163.393L106.13 160.608C106.052 160.315 105.898 160.048 105.684 159.833L104.408 158.557C104.328 158.477 104.24 158.405 104.145 158.343C103.232 157.746 101.494 156.713 100.84 156.713C100.189 156.713 97.9513 156.201 96.7358 155.902C96.599 155.868 96.4591 155.851 96.3182 155.851H90.4972H86.3984C86.2586 155.851 86.1192 155.834 85.9835 155.8L81.2399 154.624Z" fill="#B3C3E6"/>
<path d="M127.965 147.232C127.697 147.232 127.433 147.295 127.194 147.414L126.26 147.881C125.981 148.021 125.746 148.233 125.578 148.496L125.5 148.618L125.005 149.394C124.828 149.671 124.734 149.993 124.734 150.321V151.111V152.404L125.465 153.549C125.702 153.92 126.073 154.187 126.5 154.294L126.696 154.343L128.663 154.835C129.062 154.934 129.484 154.888 129.852 154.704L130.144 154.558L130.755 154.252C130.921 154.17 131.073 154.061 131.2 153.927C131.578 153.527 132.078 152.94 132.402 152.404C132.598 152.08 132.729 151.775 132.729 151.542C132.729 151.195 132.584 150.687 132.402 150.196C132.287 149.884 132.158 149.578 132.042 149.323C131.931 149.08 131.867 148.817 131.867 148.549V147.232H130.144H128.851H127.965Z" fill="#B3C3E6"/>
<path d="M129.651 139.783C129.414 140.14 129.051 140.395 128.635 140.499L126.63 141C126.127 141.126 125.593 141.018 125.178 140.707L124.734 140.374V141.601C124.734 141.902 124.655 142.199 124.505 142.46L123.363 144.448C123.287 144.58 123.194 144.701 123.087 144.808L121.813 146.082L123.249 147.232L125.5 148.618L125.578 148.496C125.746 148.233 125.981 148.021 126.26 147.881L127.194 147.414C127.433 147.295 127.697 147.232 127.965 147.232H128.851C128.994 146.945 129.282 146.198 129.282 145.509C129.282 144.921 129.699 143.63 130 142.801C130.092 142.548 130.13 142.278 130.104 142.011L129.856 139.475L129.651 139.783Z" fill="#B3C3E6"/>
<path d="M15.5138 120.514V23.8358C15.5138 23.3786 15.6954 22.9401 16.0187 22.6169L18.0994 20.5361M18.0994 20.5361L21.5719 22.6196C22.0911 22.9311 22.4088 23.4922 22.4088 24.0977V28.293M18.0994 20.5361V17.9505M22.4088 28.293V37.2518C22.4088 37.5921 22.5095 37.9248 22.6983 38.208L23.7183 39.738C23.9826 40.1344 24.3992 40.4038 24.8692 40.4821L24.9945 40.503M22.4088 28.293L25.6201 25.8846C25.7765 25.7673 25.9117 25.6243 26.0201 25.4617L27.3488 23.4686C28.1445 22.2751 29.9648 22.5189 30.4184 23.8797L31.0276 25.7074L32.685 31.5084C32.729 31.6624 32.7514 31.8218 32.7514 31.982V37.0597C32.7514 37.5169 32.5697 37.9553 32.2465 38.2786L29.9311 40.594C29.5375 40.9876 28.978 41.1669 28.4288 41.0754L24.9945 40.503M18.0994 17.9505L20.9757 15.7932C21.3415 15.5189 21.5833 15.1106 21.6479 14.658L22.3711 9.59575C22.3961 9.42075 22.394 9.24295 22.365 9.06859L21.5469 4.16042L21.1648 2.24955C20.931 1.08066 19.6098 0.496198 18.5876 1.10949L16.708 2.23724C16.4892 2.36855 16.3022 2.54682 16.1607 2.75918L13.2177 7.17368C13.0289 7.45684 12.9281 7.78954 12.9281 8.12985V12.4472C12.9281 12.6665 12.97 12.8838 13.0514 13.0874L14.3246 16.2703C14.5301 16.7842 14.97 17.1681 15.507 17.3024L18.0994 17.9505ZM27.5801 41.2212V46.3925C27.5801 47.3445 28.3518 48.1162 29.3038 48.1162C30.2559 48.1162 31.0276 48.888 31.0276 49.84V56.735V89.4864V120.514M24.9945 40.503V46.189C24.9945 46.8419 24.6256 47.4388 24.0416 47.7308L23.5209 47.9911C23.3552 48.074 23.2039 48.183 23.0729 48.314L22.0443 49.3426C21.7255 49.6614 21.5443 50.0925 21.5395 50.5434L20.7304 127.409M74.1215 30.8787C74.1215 31.5682 74.1215 33.4643 74.1215 34.3262M74.1215 34.3262L76.4203 35.8587C76.6097 35.9849 76.7722 36.1474 76.8984 36.3368L78.4309 38.6356C78.7182 39.2102 79.2928 40.5317 79.2928 41.2212C79.2928 41.9058 78.7264 95.8864 78.4372 123.37C78.4331 123.758 78.2774 124.115 78.0032 124.389C77.7252 124.667 77.3482 124.823 76.9551 124.823H75.8453H72.61C72.4691 124.823 72.3286 124.806 72.1919 124.772L69.7194 124.154C69.2312 124.032 68.8208 123.703 68.5957 123.252L68.5193 123.1M74.1215 34.3262L71.9219 35.0594C71.6681 35.144 71.4374 35.2866 71.2482 35.4758L70.8718 35.8521C70.7408 35.9831 70.6318 36.1344 70.5489 36.3001L69.9852 37.4276C69.8713 37.6555 69.8092 37.9058 69.8036 38.1606L68.0884 116.205V121.831C68.0884 122.099 68.1507 122.362 68.2704 122.602L68.5193 123.1M79.2928 123.1H81.8785H84.612C85.0691 123.1 85.5076 123.281 85.8308 123.605L86.1712 123.945C86.6958 124.47 86.8259 125.271 86.4941 125.935L86.3129 126.297C86.2301 126.463 86.1211 126.614 85.99 126.745L84.8017 127.933C84.5808 128.154 84.304 128.311 84.0009 128.387L83.6022 128.486M68.5193 123.1H65.5028H64.1859C63.9183 123.1 63.6544 123.162 63.415 123.282L62.5692 123.705C62.2356 123.871 61.9651 124.142 61.7983 124.475L61.3753 125.321C61.2557 125.561 61.1934 125.825 61.1934 126.092V126.344C61.1934 126.997 61.5623 127.594 62.1462 127.886L62.7106 128.168C62.8477 128.236 62.9932 128.286 63.1435 128.316L67.0591 129.099C67.1704 129.122 67.2837 129.133 67.3972 129.133H73.2597H80.8044C80.9453 129.133 81.0857 129.116 81.2224 129.081L83.6022 128.486M64.6409 129.133L65.5028 132.58L66.3061 136.597C66.3448 136.791 66.4166 136.976 66.5183 137.146L68.7967 140.943C68.8983 141.113 68.9701 141.298 69.0088 141.492L69.8121 145.509M69.8121 145.509L72.0602 147.757C72.2811 147.977 72.5579 148.134 72.861 148.21L75.4693 148.862C75.7169 148.924 75.9751 148.93 76.2254 148.88L79.2928 148.267M69.8121 145.509L66.3646 142.923L61.4418 139.641C61.2774 139.531 61.0954 139.451 60.9037 139.403L57.9517 138.665C57.815 138.631 57.6746 138.614 57.5336 138.614H52.5746H48.9792C48.522 138.614 48.0839 138.795 47.7606 139.118C47.1102 139.768 46.2087 140.67 45.6795 141.199C45.0347 141.844 43.8369 143.042 43.2145 143.664C43.1342 143.744 43.0624 143.832 43.0003 143.927C42.4034 144.84 41.3701 146.579 41.3701 147.232C41.3701 148.094 40.5083 150.249 40.5083 151.542C40.5083 152.519 40.5083 155.623 40.5083 157.296C40.5083 157.481 40.5381 157.664 40.5967 157.84L41.1831 159.599C41.3043 159.963 41.5433 160.276 41.8622 160.489L42.232 160.735M83.6022 128.486V129.133V132.438C83.6022 132.533 83.5944 132.627 83.5788 132.721L82.7403 137.752L81.8785 142.061L80.3962 147.249C80.2479 147.768 79.8221 148.161 79.2928 148.267M73.2597 148.956L71.8254 151.107C71.6366 151.391 71.5359 151.723 71.5359 152.064V152.835M72.3978 156.713L71.6244 154.393C71.5658 154.217 71.5359 154.033 71.5359 153.848V152.835M72.3978 156.713H74.1215M72.3978 156.713L70.7606 158.35C70.703 158.408 70.6498 158.469 70.6008 158.534C69.709 159.72 67.8971 162.076 67.2265 162.746C66.3646 163.608 63.779 164.47 63.779 165.332C63.779 165.855 61.4649 166.08 59.4696 166.159M72.3978 156.713L72.1346 155.923C71.9416 155.344 71.457 154.911 70.8604 154.783L63.779 153.265L57.7458 152.835H52.9042C51.6451 152.978 48.9547 153.265 48.2652 153.265C47.751 153.265 46.5659 153.585 45.639 153.867C45.1198 154.024 44.6872 154.424 44.2371 154.727C43.9395 154.927 43.5584 155.319 43.0939 156.713C42.8759 157.367 42.232 159.394 42.232 160.735M80.1547 154.989C80.442 154.702 81.0166 153.955 81.0166 153.265C81.0166 153.151 81.0009 153.004 80.9733 152.835M80.1547 154.989L79.2928 155.851M80.1547 154.989C80.443 154.701 80.8442 154.526 81.2399 154.624L85.9835 155.8C86.1192 155.834 86.2586 155.851 86.3984 155.851H90.4972H96.3182C96.4591 155.851 96.5989 155.868 96.7358 155.902C97.9513 156.201 100.189 156.713 100.84 156.713C101.494 156.713 103.232 157.746 104.145 158.343C104.24 158.405 104.328 158.477 104.408 158.557L105.684 159.833C105.898 160.048 106.052 160.315 106.13 160.608L106.873 163.393M80.1547 149.818L79.2928 148.267M80.1547 149.818C80.3945 150.537 80.8344 151.977 80.9733 152.835M80.1547 149.818L84.4641 146.37L88.6309 143.037C88.7257 142.961 88.8282 142.896 88.9368 142.841L93.9448 140.337L97.9459 138.737C98.1495 138.655 98.3668 138.614 98.5861 138.614H103.425H106.873C107.416 138.614 107.926 138.869 108.252 139.303L109.872 141.464C110.158 141.845 110.272 142.327 110.197 142.797C110.106 143.362 110.011 144.006 109.942 144.591M71.5359 152.835L68.5193 150.68L65.5028 148.094L62.279 145.676C62.1308 145.565 61.9656 145.479 61.7899 145.42L59.4696 144.647M80.9733 152.835L83.6022 151.542L87.0497 149.818L91.3591 148.094L94.8066 146.37M79.2928 155.851L78.9358 156.208C78.6125 156.531 78.1741 156.713 77.7169 156.713H77.1381M79.2928 155.851L80.8476 156.648C80.9313 156.691 81.0113 156.741 81.0869 156.797L84.4641 159.299L88.7735 162.746L90.4972 164.039M106.873 163.393L107.304 163.069C107.585 162.859 107.794 162.568 107.905 162.235L108.166 161.453M106.873 163.393L104.566 165.123C104.382 165.261 104.173 165.361 103.95 165.413C102.652 165.715 100.142 166.194 98.2542 166.194C96.3664 166.194 93.8564 165.715 92.5587 165.413C92.335 165.361 92.1263 165.261 91.9425 165.123L90.4972 164.039M77.1381 156.713H75.8453H74.1215M77.1381 156.713L83.6022 164.47C84.0774 165.103 84.8144 166.139 85.3802 167.056M78.4309 241.177L79.2708 235.298C79.2855 235.195 79.309 235.095 79.342 234.997C79.9398 233.223 81.208 229.781 81.8785 229.111C82.5547 228.435 82.7335 222.728 82.7401 219.799C82.7404 219.685 82.7515 219.574 82.7738 219.463L84.4641 211.011L86.1878 201.531L87.0497 193.774V192.912M78.4309 241.177L77.2073 251.782C77.1625 252.17 77.2509 252.562 77.4579 252.893L78.2155 254.105M78.4309 241.177L77.1381 235.144L75.8453 225.663L74.991 209.431C74.9859 209.336 74.973 209.241 74.9523 209.148L71.5644 193.902C71.5454 193.817 71.533 193.731 71.5272 193.644C71.3773 191.393 71.1544 188.001 70.974 185.155M99.9779 270.481L94.8066 267.033L88.7735 263.586L84.6461 261.109C84.5252 261.037 84.4137 260.95 84.314 260.85L79.4316 255.968C79.3394 255.876 79.2579 255.773 79.1888 255.663L78.2155 254.105M99.9779 270.481L96.6521 271.312C96.5711 271.333 96.4887 271.347 96.4056 271.355L87.9116 272.205H78.4309H73.2597M99.9779 270.481L101.702 270.136M98.2542 254.967C98.5414 255.542 99.2884 256.691 99.9779 256.691C100.598 256.691 101.729 258.085 102.369 258.993C102.5 259.179 102.661 259.341 102.849 259.469C103.791 260.108 105.39 261.241 106.011 261.862C106.536 262.387 107.762 263.279 108.697 263.929C109.17 264.257 109.459 264.794 109.459 265.37V266.319C109.459 266.777 109.277 267.215 108.954 267.538L108.072 268.42C107.852 268.641 107.575 268.797 107.272 268.873L104.287 269.619L101.702 270.136M98.2542 254.967L97.4081 248.199C97.3976 248.114 97.3933 248.03 97.3952 247.945L98.2542 211.011V192.05L97.3923 185.155L96.5469 178.392C96.5359 178.304 96.5182 178.217 96.4939 178.132L95.6685 175.243M98.2542 254.967L99.9779 260.138L101.613 265.044C101.672 265.22 101.702 265.404 101.702 265.589V268.757V270.136M90.4972 164.039L92.0748 166.011C92.1718 166.132 92.252 166.266 92.3132 166.409L94.8066 172.227L95.6685 175.243M95.6685 175.243L100.561 178.913C100.745 179.051 100.955 179.151 101.177 179.206L103.425 179.768M115.492 179.122C114.842 179.122 110.565 180.143 108.152 180.742C107.877 180.81 107.591 180.81 107.317 180.741L103.425 179.768M115.492 179.122C115.729 179.122 116.381 178.918 117.215 178.615M115.492 179.122C115.352 179.122 115.044 179.169 114.623 179.249C113.401 179.482 112.303 178.438 112.534 177.216L112.906 175.243L113.732 169.875C113.756 169.72 113.758 169.562 113.739 169.406L112.906 162.531M103.425 179.768L110.092 181.643C110.243 181.686 110.4 181.707 110.558 181.707H112.044M73.2597 272.205L74.9834 267.895L76.7072 262.724L78.1187 258.691C78.1827 258.508 78.2155 258.316 78.2155 258.122V254.105M73.2597 272.205L68.198 274.736C68.125 274.772 68.0496 274.803 67.9722 274.829L62.9171 276.514L57.0109 279.045C56.9264 279.082 56.8392 279.111 56.75 279.133L53.6423 279.91C53.5056 279.944 53.3652 279.962 53.2242 279.962H49.8411C49.3839 279.962 48.9454 279.78 48.6222 279.457C47.949 278.784 47.949 277.692 48.6222 277.019L49.0404 276.601C49.0981 276.543 49.1516 276.481 49.2006 276.416L51.6194 273.191C51.6815 273.108 51.736 273.02 51.7822 272.928L54.2983 267.895M54.2983 267.895L56.7161 264.672C56.8273 264.523 56.9138 264.358 56.9724 264.182L58.895 258.415M54.2983 267.895L52.1034 267.501C51.8463 267.454 51.6031 267.35 51.3921 267.196L50.4336 266.496C50.1444 266.285 49.9281 265.989 49.8148 265.649L49.3937 264.386C49.2254 263.881 49.2996 263.327 49.5947 262.884L50.6596 261.287C50.7858 261.098 50.9483 260.935 51.1377 260.809L53.1222 259.486C53.3292 259.348 53.5637 259.256 53.8095 259.218L58.895 258.415M59.4696 176.823V197.221L60.3315 209.288V223.078V241.177V249.796L59.4908 256.522C59.4767 256.634 59.4515 256.745 59.4156 256.853L58.895 258.415M74.1215 156.713L71.6317 163.145C71.5682 163.309 71.48 163.462 71.3702 163.6L69.9845 165.332M64.6409 172.011L62.2442 175.007C62.1192 175.163 61.9679 175.297 61.7971 175.401L54.5933 179.803C54.3986 179.922 54.1822 180.002 53.9566 180.036L43.406 181.659C43.2017 181.691 42.9927 181.667 42.8007 181.59C41.7017 181.151 41.8948 179.539 43.0666 179.372L44.8177 179.122L50.6062 178.295C50.7685 178.272 50.9266 178.226 51.0757 178.158L60.3315 173.951L64.6409 172.011ZM64.6409 172.011L69.9845 165.332M42.232 160.735L43.8295 161.8C43.9135 161.856 44.0023 161.905 44.0948 161.945L47.4033 163.393L52.4178 165.273C52.5221 165.312 52.6299 165.341 52.7397 165.359L57.6051 166.17C57.6988 166.186 57.7935 166.194 57.8885 166.193C58.3472 166.192 58.8952 166.181 59.4696 166.159M69.9845 165.332C70.2144 169.928 70.674 179.294 70.674 179.984M70.674 179.984H78.4309H79.7238M70.674 179.984C70.674 180.313 70.8054 182.496 70.974 185.155M70.974 185.155H71.5359C72.1105 185.155 73.432 185.155 74.1215 185.155C74.9834 185.155 77.5691 185.155 78.4309 185.155C79.2928 185.155 80.1547 184.293 81.0166 184.293C81.237 184.293 81.4045 184.176 81.5305 183.997M87.0497 192.912V183.431C86.7624 178.835 86.1878 169.469 86.1878 168.779C86.1878 168.47 85.8408 167.802 85.3802 167.056M87.0497 192.912L84.5573 189.589C84.4953 189.506 84.4408 189.418 84.3946 189.325L82.7403 186.017L81.5305 183.997M81.5305 183.997C81.7418 183.698 81.8362 183.226 81.8667 182.849C81.8816 182.664 81.8486 182.48 81.79 182.304L81.4095 181.162C81.1748 180.458 80.5161 179.984 79.7742 179.984H79.7238M79.7238 179.984V176.923C79.7238 176.668 79.7803 176.417 79.8893 176.186L81.5305 172.717L83.4741 169.023C83.559 168.861 83.6689 168.715 83.7997 168.588L85.3802 167.056M20.6851 121.376H17.2375H14.1969C13.9293 121.376 13.6654 121.438 13.4261 121.558L11.2954 122.623C10.7114 122.915 10.3425 123.512 10.3425 124.165V124.62C10.3425 125.273 10.7114 125.87 11.2954 126.162L13.4261 127.227C13.6654 127.347 13.9293 127.409 14.197 127.409H15.5138M20.7304 127.409L20.6851 131.718V135.647C20.6851 136.389 21.1598 137.048 21.8637 137.283L22.7945 137.593C23.1055 137.697 23.4396 137.709 23.7577 137.63L26.5123 136.941C26.6491 136.907 26.7895 136.89 26.9304 136.89H28.8969C29.1645 136.89 29.4285 136.827 29.6678 136.708L30.0747 136.504C30.6587 136.212 31.0276 135.615 31.0276 134.963V134.304M20.7304 127.409H17.2375H15.5138M31.0276 127.409H33.9532C34.2935 127.409 34.6262 127.308 34.9094 127.12L36.5687 126.013C36.8876 125.801 37.1266 125.488 37.2478 125.124L37.5857 124.11C37.7922 123.491 37.631 122.808 37.1693 122.346L36.4866 121.664C36.2974 121.474 36.0667 121.332 35.8128 121.247L33.8786 120.603C33.7028 120.544 33.5188 120.514 33.3335 120.514H31.0276M31.0276 127.409V120.514M31.0276 127.409V134.304M15.5138 127.409V130.45C15.5138 130.717 15.5761 130.981 15.6958 131.221L16.1709 132.171C16.3051 132.439 16.507 132.668 16.7565 132.834L18.9135 134.272C18.9447 134.293 18.9813 134.304 19.0188 134.304C19.2192 134.304 19.2829 134.574 19.1037 134.664L18.1904 135.121C18.1306 135.15 18.0646 135.166 17.9977 135.166H14.8226C14.7091 135.166 14.5958 135.177 14.4845 135.199L12.4972 135.597M18.0994 146.37H17.2375M12.4972 135.597L10.3425 136.028L8.14292 136.761C7.88905 136.846 7.65836 136.988 7.46913 137.177L6.53799 138.109C6.21473 138.432 6.03312 138.87 6.03312 139.328V141.199C6.03312 141.742 6.28857 142.253 6.72262 142.578L9.25685 144.479C9.40507 144.59 9.57024 144.677 9.74601 144.735L14.3865 146.282C14.5623 146.341 14.7464 146.37 14.9316 146.37H17.2375M12.4972 135.597L12.2063 137.051C12.1166 137.5 12.2087 137.965 12.4623 138.346L13.2783 139.57C13.598 140.049 14.1362 140.337 14.7126 140.337H16.3757M31.0276 134.304L34.2693 135.115C34.406 135.149 34.5464 135.166 34.6873 135.166H38.404C39.1459 135.166 39.8046 135.641 40.0393 136.345L40.2887 137.093C40.4296 137.516 40.4013 137.976 40.2099 138.379L39.7457 139.354C39.46 139.955 38.8543 140.337 38.1892 140.337H36.4456M36.4456 140.337H33.6132L26.9106 141.175C26.7827 141.191 26.6535 141.193 26.5253 141.18L18.0994 140.337H16.3757M36.4456 140.337L35.3606 146.242C35.3449 146.328 35.3231 146.411 35.2946 146.493C34.6828 148.252 33.4623 151.542 33.1504 151.542C32.8516 151.542 32.259 154.563 31.9488 156.363C31.909 156.594 31.8242 156.815 31.6975 157.012L29.6632 160.176C29.4319 160.536 29.0751 160.797 28.6622 160.908L26.7182 161.433M26.7182 161.433L23.6865 159.556C23.4147 159.388 23.1946 159.148 23.0552 158.86C22.4499 157.611 21.5469 155.6 21.5469 154.989C21.5469 154.337 21.0593 151.574 20.7763 150.062C20.7459 149.899 20.6921 149.743 20.6168 149.596L18.9613 146.37L17.2923 143.032C17.2558 142.96 17.2246 142.884 17.1988 142.807L16.3757 140.337M26.7182 161.433V167.056V172.227M17.2375 146.37L18.0994 160.16C18.0994 161.884 17.927 165.677 17.2375 167.056C16.9263 167.678 16.7275 168.581 16.5599 169.542M12.4972 181.707C12.4972 182.368 10.65 187.304 9.61109 189.99C9.52486 190.213 9.39335 190.414 9.22434 190.583L6.895 192.912M12.4972 181.707C11.2044 181.707 8.44638 181.707 7.75688 181.707M12.4972 181.707L17.0668 180.877C17.1803 180.856 17.291 180.824 17.3982 180.782C18.8895 180.19 21.7441 179.122 22.4088 179.122C23.0983 179.122 24.1425 178.27 24.5785 177.844M12.4972 181.707H7.75688M12.4972 181.707C12.4972 181.337 12.8963 180.088 13.4196 178.682M24.9945 173.951L26.7182 172.227M24.9945 173.951L21.5469 172.011L19.0714 170.567C18.9981 170.524 18.9218 170.487 18.843 170.456L16.5599 169.542M24.9945 173.951L24.4199 174.812M26.7182 172.227L30.1657 172.717M30.1657 172.717L32.4393 170.503L34.9593 167.505C35.2042 167.214 35.5387 167.011 35.9105 166.93L39.096 166.233C39.2169 166.207 39.3404 166.194 39.4642 166.194H45.3476C45.5669 166.194 45.7842 166.235 45.9878 166.317L49.1706 167.59C49.6845 167.796 50.0685 168.235 50.2027 168.772L50.6353 170.503M30.1657 172.717L31.0276 173.765M31.8895 174.812V176.536M31.8895 174.812L31.0276 173.765M31.8895 174.812L32.1244 174.997C32.3316 175.159 32.5732 175.272 32.8308 175.326L34.1765 175.611C34.374 175.653 34.5774 175.66 34.7773 175.631L40.0711 174.875C40.3579 174.834 40.6298 174.721 40.8616 174.547L43.5787 172.51C43.8161 172.332 43.9558 172.052 43.9558 171.755C43.9558 171.505 43.8565 171.266 43.6797 171.089L43.0939 170.503M31.8895 176.536L34.9838 177.71C35.2165 177.798 35.4655 177.835 35.7138 177.818L44.5088 177.211C44.7131 177.197 44.9132 177.147 45.0998 177.063L48.5283 175.514C48.914 175.34 49.222 175.03 49.3939 174.643L50.6098 171.907C50.766 171.556 50.8001 171.162 50.7069 170.789L50.6353 170.503M31.8895 176.536L31.0276 177.398M30.1657 178.26H24.9945M30.1657 178.26L31.7899 180.696C31.8561 180.796 31.9118 180.901 31.9561 181.012L33.5263 184.938C33.584 185.082 33.6219 185.233 33.6391 185.388L34.4751 192.912V201.531V210.732C34.4751 210.917 34.505 211.101 34.5636 211.277L36.1104 215.917C36.169 216.093 36.2555 216.258 36.3667 216.406L38.2674 218.941C38.5929 219.375 39.1038 219.63 39.6464 219.63H40.4476C41.024 219.63 41.5622 219.342 41.8819 218.863L42.7158 217.612C42.9587 217.247 43.0538 216.804 42.9818 216.372L42.232 211.873L41.3701 204.116L39.6768 197.343C39.6566 197.262 39.6422 197.18 39.6339 197.096L38.8109 188.866C38.7934 188.691 38.7493 188.52 38.6801 188.359L36.2803 182.759C36.2262 182.633 36.1573 182.514 36.0749 182.404L33.7904 179.358C33.6731 179.202 33.5302 179.066 33.3676 178.958L31.0276 177.398M30.1657 178.26L31.0276 177.398M24.9945 178.26L24.5785 177.844M24.9945 178.26L24.6258 180.551C24.5945 180.746 24.5969 180.943 24.6314 181.138C25.0573 183.539 25.656 188.141 24.9945 189.464C24.1326 191.188 26.7182 202.393 26.7182 204.116C26.7182 205.456 25.6338 211.784 25.0451 215.041C25.0116 215.227 24.9478 215.405 24.8562 215.57L20.944 222.611C20.7753 222.915 20.5188 223.161 20.2081 223.316L17.6015 224.619C17.3622 224.739 17.0982 224.801 16.8306 224.801H15.8943C15.1524 224.801 14.4936 224.327 14.259 223.623L14.0566 223.016C13.8884 222.511 13.9626 221.957 14.2577 221.514L15.426 219.762C15.4844 219.674 15.5347 219.581 15.5761 219.485L17.96 213.922C18.052 213.708 18.0994 213.477 18.0994 213.243V203.254M7.75688 181.707C7.17936 181.707 4.54604 180.901 2.693 180.302C2.09416 180.108 1.6535 179.599 1.54291 178.98C1.2458 177.315 0.861845 175.094 0.861845 174.812C0.861845 174.381 2.5856 171.365 3.44748 170.503C4.07459 169.876 6.65047 168.726 8.19224 168.091C8.47135 167.976 8.77605 167.94 9.0749 167.983L14.4473 168.75C14.5832 168.769 14.7163 168.805 14.8438 168.856L16.5599 169.542M24.5785 177.844L23.9246 177.19M24.5785 177.844L19.2268 183.706C19.0521 183.898 18.9224 184.126 18.8507 184.375C18.548 185.426 18.0994 187.131 18.0994 187.741M23.9246 177.19L20.2045 177.844L16.3757 178.26L13.4196 178.682M23.9246 177.19C23.5444 176.81 23.4854 176.214 23.7836 175.767L24.4199 174.812M24.4199 174.812L20.7304 173.951L16.0153 172.613M18.0994 187.741C18.0994 188.43 18.0994 198.37 18.0994 203.254M18.0994 187.741V203.254M43.0939 170.503C42.5193 170.503 41.1978 170.503 40.5083 170.503M43.0939 170.503H40.5083M40.5083 170.503C39.6464 170.503 37.6759 172.011 37.0608 172.011C36.5686 172.011 34.5574 172.482 33.6132 172.717L31.0276 173.765M29.3038 161.433V167.056V172.227M50.6353 170.503L56.0221 167.917L59.4696 166.159M109.459 35.619L108.198 35.3039C107.895 35.2281 107.618 35.0714 107.397 34.8504L105.654 33.1073C105.331 32.784 105.149 32.3456 105.149 31.8884V27.5738C105.149 27.4789 105.157 27.3841 105.173 27.2904L105.942 22.6745C105.987 22.4021 106.098 22.1446 106.263 21.9236L108.597 18.8124L109.781 16.8387C110.432 15.7536 111.991 15.7165 112.693 16.7694L112.778 16.8965C112.863 17.024 112.931 17.1623 112.979 17.3076L113.68 19.4089C113.738 19.5846 113.825 19.7498 113.936 19.898L116.119 22.809C116.273 23.0149 116.38 23.2528 116.43 23.5052L117.182 27.2638C117.204 27.3751 117.215 27.4875 117.215 27.601C117.215 28.8078 117.215 31.0833 117.215 31.7405C117.215 32.3495 115.871 33.8994 114.963 34.8471C114.747 35.0726 114.47 35.2281 114.167 35.3039L111.6 35.9454C111.326 36.014 111.039 36.014 110.764 35.9454L109.459 35.619ZM109.459 35.619V39.0905C109.459 39.3581 109.396 39.6221 109.277 39.8614L108.729 40.9571C108.641 41.1319 108.584 41.3189 108.56 41.5129C108.264 43.9 107.735 48.3166 107.735 48.9781C107.735 49.6223 108.236 92.9495 108.537 118.79M108.597 123.962C108.578 122.338 108.558 120.608 108.537 118.79M108.597 123.962L108.537 118.79M108.597 123.962C109.24 123.962 114.036 123.962 116.354 123.962M108.597 123.962L107.378 125.18C107.055 125.504 106.873 125.942 106.873 126.399V126.918C106.873 127.239 106.962 127.553 107.132 127.826C107.696 128.73 108.495 129.995 108.537 129.995C108.583 129.995 111.258 130.527 112.739 130.823C112.851 130.846 112.963 130.857 113.077 130.857H117.215H119.112M109.942 117.067H112.044H113.397M113.397 117.067L115.492 114.481M113.397 117.067V120.083C113.397 120.849 113.903 121.523 114.638 121.738L116.354 122.238M115.492 114.481V43.1572C115.492 43.0162 115.474 42.8758 115.44 42.7391L114.822 40.2666C114.7 39.7784 114.371 39.3679 113.921 39.1429L113.545 38.9549C113.136 38.7504 112.825 38.3919 112.68 37.9582L112.044 36.0499M115.492 114.481H118.077M116.354 122.238L118.077 128.271L119.112 130.857M116.354 122.238H122.387H132.729M132.729 122.238V125.563C132.729 125.644 132.724 125.726 132.712 125.807L131.867 131.718L131.061 137.365C131.024 137.619 130.931 137.863 130.789 138.077L129.856 139.475M132.729 122.238L136.058 121.572C136.664 121.451 137.159 121.014 137.355 120.427L137.719 119.335C137.837 118.982 137.837 118.599 137.719 118.245L137.264 116.882C137.12 116.448 136.81 116.089 136.397 115.891C135.144 115.291 133.308 114.481 132.729 114.481C132.366 114.481 130.713 114.481 128.851 114.481M119.112 130.857L119.801 132.58L122.205 138.19C122.324 138.467 122.514 138.709 122.755 138.89L124.734 140.374M110.32 130.857C110.32 131.546 112.044 136.315 112.906 138.614L114.229 142.477C114.329 142.769 114.505 143.029 114.74 143.229L116.23 144.503M124.734 140.374L125.178 140.707C125.593 141.018 126.127 141.126 126.63 141L128.635 140.499C129.051 140.395 129.414 140.14 129.651 139.783L129.856 139.475M124.734 140.374V141.601C124.734 141.902 124.655 142.199 124.505 142.46L123.363 144.448C123.287 144.58 123.194 144.701 123.087 144.808L121.813 146.082M124.734 152.404L125.465 153.549C125.702 153.92 126.073 154.187 126.5 154.294L126.696 154.343M124.734 152.404V151.111M124.734 152.404C124.239 152.691 123.076 153.265 122.387 153.265C121.525 153.265 119.284 154.127 119.112 154.127C118.939 154.127 116.602 154.989 115.492 154.989M131.867 147.232V148.549C131.867 148.817 131.931 149.08 132.042 149.323C132.158 149.578 132.287 149.884 132.402 150.196M131.867 147.232H130.144H128.851M131.867 147.232L135.315 143.785C136.177 142.923 138.073 141.199 138.762 141.199C139.405 141.199 142.385 140.7 144.087 140.4C144.32 140.359 144.558 140.366 144.789 140.42L151.031 141.904C151.455 142.005 151.825 142.263 152.067 142.625L154.849 146.798C155.037 147.081 155.138 147.414 155.138 147.754V149.966C155.138 150.423 154.957 150.861 154.633 151.185L152.75 153.068C152.619 153.199 152.468 153.307 152.304 153.394C151.657 153.739 150.57 154.386 149.967 154.989C149.277 155.679 145.657 156.426 143.934 156.713M128.851 147.232H127.965C127.697 147.232 127.433 147.295 127.194 147.414L126.26 147.881C125.982 148.021 125.746 148.233 125.578 148.496L125.5 148.618M128.851 147.232C128.994 146.945 129.282 146.198 129.282 145.509C129.282 144.921 129.699 143.63 130 142.801C130.092 142.548 130.13 142.278 130.104 142.011L129.856 139.475M143.934 156.713C142.785 156.713 140.141 156.713 138.762 156.713M143.934 156.713H138.762M138.762 156.713C137.383 156.713 135.315 156.713 134.453 156.713M138.762 156.713H134.453M134.453 156.713L131.398 153.712M134.453 156.713L136.177 160.16L137.804 164.227C137.868 164.388 137.908 164.558 137.921 164.73L138.762 175.243V185.155C139.05 188.315 139.452 194.808 138.762 195.498C138.285 195.975 138.055 197.307 137.959 198.463C137.894 199.251 137.362 199.941 136.595 200.133L135.307 200.455C134.771 200.589 134.203 200.458 133.779 200.103L132.889 199.354C132.575 199.09 132.365 198.723 132.298 198.318L131.437 193.143C131.411 192.99 131.406 192.835 131.423 192.68C131.764 189.445 132.402 183.242 132.402 182.569C132.402 181.707 133.591 173.951 133.591 173.462M132.402 152.404C132.078 152.94 131.578 153.527 131.2 153.927C131.073 154.061 130.921 154.17 130.755 154.252L130.144 154.558M132.402 152.404C132.598 152.08 132.729 151.775 132.729 151.542C132.729 151.195 132.584 150.687 132.402 150.196M132.402 152.404L134.864 153.132C135.159 153.219 135.472 153.226 135.771 153.153C137.022 152.851 139.016 152.404 139.624 152.404M139.624 152.404C140.486 152.404 142.578 152.404 143.072 152.404M139.624 152.404H143.072M143.072 152.404C143.335 152.404 144.342 152.148 145.275 151.893C146.014 151.691 146.519 151.015 146.519 150.249V149.08C146.519 148.998 146.525 148.915 146.537 148.833L146.632 148.178C146.718 147.59 146.499 146.991 146.014 146.646C145.597 146.349 145.154 146.082 144.925 146.082M144.925 146.082C144.439 146.082 143.072 146.082 142.21 146.082M144.925 146.082H142.21M142.21 146.082C141.348 146.082 141.348 147.232 140.486 147.232C139.85 147.232 137.698 147.721 136.466 148.023C136.274 148.07 136.093 148.15 135.928 148.26L133.794 149.683C133.659 149.773 133.513 149.843 133.359 149.892L132.402 150.196M125.5 148.618L125.005 149.394C124.828 149.671 124.734 149.993 124.734 150.321V151.111M125.5 148.618L123.249 147.232L121.813 146.082M121.813 146.082C121.63 146.265 121.376 146.358 121.119 146.337L118.631 146.129C118.271 146.099 117.93 145.956 117.655 145.721L116.23 144.503M116.23 144.503L112.906 144.647L109.942 144.591M109.942 144.591C109.826 145.563 109.781 146.37 109.942 146.37C110.177 146.37 110.123 148.457 110.027 150.196M110.027 150.196C110 150.692 109.97 151.159 109.942 151.542L109.491 155.851M110.027 150.196C110.7 150.07 112.217 149.818 112.906 149.818M112.906 149.818C113.596 149.818 116.066 149.818 117.215 149.818M112.906 149.818H117.215M117.215 149.818L121.263 150.173C121.436 150.188 121.612 150.177 121.782 150.139L122.402 150.004C122.935 149.887 123.491 150.029 123.903 150.387L124.734 151.111M115.492 154.989C114.382 154.989 113.768 154.989 112.906 154.989M115.492 154.989H112.906M112.906 154.989C112.217 154.989 110.342 155.564 109.491 155.851M109.491 155.851L109.4 156.713L108.597 160.16L108.166 161.453M108.166 161.453L111.568 162.587C111.879 162.691 112.213 162.704 112.531 162.624L112.906 162.531M126.696 154.343L128.663 154.835C129.062 154.934 129.484 154.888 129.852 154.704L130.144 154.558M126.696 154.343L125.949 155.651C125.873 155.784 125.78 155.906 125.669 156.012C125.417 156.254 125.095 156.54 124.734 156.83M112.906 162.531L116.354 161.669M116.354 161.669L116.682 161.587C117.029 161.5 117.338 161.306 117.582 161.045C118.573 159.986 120.315 158.437 121.525 158.437C122.474 158.437 123.75 157.62 124.734 156.83M116.354 161.669V166.931C116.354 167.014 116.359 167.095 116.371 167.178C116.664 169.191 117.215 173.08 117.215 173.462M117.215 173.462C117.215 173.853 117.215 175.674 117.215 176.536M117.215 173.462V176.536M117.215 176.536V178.615M117.215 178.615C118.632 178.102 120.575 177.305 121.916 176.737C122.224 176.606 122.486 176.388 122.671 176.11L123.857 174.331C124.023 174.082 124.252 173.88 124.52 173.746L124.972 173.52M115.492 181.707H116C116.233 181.707 116.464 181.66 116.679 181.568L122.197 179.203C122.323 179.149 122.442 179.08 122.552 178.998L124.111 177.829M115.492 181.707L114.382 186.879L113.838 191.457C113.793 191.841 113.619 192.199 113.346 192.472L111.687 194.131C111.364 194.454 110.925 194.636 110.468 194.636H109.459C108.507 194.636 107.735 193.864 107.735 192.912V191.468C107.735 191.283 107.765 191.099 107.823 190.923L108.558 188.719C108.584 188.641 108.615 188.566 108.651 188.493L110.32 185.155L112.044 181.707M115.492 181.707H112.044M124.734 156.83V162.746M124.734 162.746C124.734 164.757 124.734 168.952 124.734 169.641M124.734 162.746V169.641M124.734 169.641C124.734 170.331 124.893 172.514 124.972 173.52M124.972 173.52L125.247 173.382C125.598 173.207 126.021 173.276 126.298 173.553C126.542 173.797 126.627 174.157 126.518 174.484L126.005 176.025C125.894 176.358 125.684 176.649 125.404 176.859L124.111 177.829M124.111 177.829C123.823 179.122 123.249 181.88 123.249 182.569M123.249 182.569C123.249 183.431 123.249 187.741 123.249 189.464M123.249 182.569V189.464M123.249 189.464C123.249 191.188 122.387 193.774 121.525 194.636C120.924 195.236 119.407 196.317 118.457 196.965C118.209 197.134 118.007 197.362 117.873 197.631L117.601 198.174C117.358 198.659 117.358 199.231 117.601 199.716L117.758 200.03C117.963 200.439 118.32 200.752 118.757 200.886C119.701 201.177 120.984 201.531 121.525 201.531C122.387 201.531 123.487 200.669 124.111 200.669C124.734 200.669 126.836 198.945 127.558 198.945C128.28 198.945 129.282 192.912 129.282 192.05M129.282 192.05C129.282 191.361 129.282 180.558 129.282 175.243M129.282 192.05V175.243M129.282 175.243L129.856 161.453L130.144 154.558M130.144 154.558L132.253 156.411C132.56 156.681 132.762 157.052 132.821 157.458L133.591 162.746M133.591 162.746C133.591 166.155 133.591 173.072 133.591 173.462M133.591 162.746V173.462M124.111 23.3506C123.381 23.2839 122.45 22.8287 121.816 22.4444C121.621 22.3265 121.46 22.1624 121.334 21.973L119.99 19.958C119.865 19.7706 119.778 19.5615 119.735 19.3406C119.434 17.8116 118.939 15.1428 118.939 14.503C118.939 13.6411 120.663 10.1936 121.525 9.33169C122.105 8.75112 122.319 7.31504 122.372 6.36126C122.39 6.04932 122.472 5.74266 122.632 5.47477L123.357 4.26742C124.057 3.10106 125.768 3.1668 126.377 4.3834L126.696 5.0223L128.231 7.32421C128.356 7.51154 128.443 7.72154 128.487 7.94232L129.248 11.75C129.271 11.8613 129.282 11.9745 129.282 12.088V16.6817C129.282 16.9493 129.219 17.2128 129.102 17.4534C128.497 18.6958 127.558 20.7747 127.558 21.398C127.558 22.2599 125.834 22.2599 124.972 23.1218C124.77 23.324 124.464 23.3829 124.111 23.3506ZM124.111 23.3506V27.4311M124.111 27.4311L124.292 27.3402C125.144 26.9144 126.179 27.2595 126.605 28.111L127.403 29.7066C127.505 29.9113 127.566 30.1344 127.581 30.3628L128.42 42.945L128.851 114.481M124.111 27.4311L122.146 28.7407C121.75 29.005 121.48 29.4216 121.402 29.8915L119.821 39.3764C119.808 39.457 119.8 39.5385 119.798 39.6202L118.077 114.481M128.851 114.481C127.177 114.481 125.335 114.481 124.111 114.481H118.077M16.0153 172.613C16.2303 171.716 16.3764 170.594 16.5599 169.542M16.0153 172.613L14.8261 172.276C14.7103 172.243 14.5914 172.223 14.4713 172.215L11.4436 172.011H7.66908C7.17671 172.011 6.70784 172.222 6.38072 172.59L5.75621 173.292C5.38881 173.706 5.24202 174.27 5.36155 174.81L5.81365 176.853C5.94909 177.464 6.40586 177.954 7.00661 178.133L9.98148 179.015C10.2194 179.085 10.4697 179.104 10.7153 179.069L13.4196 178.682M16.0153 172.613C15.8827 173.167 15.7238 173.636 15.5138 173.951C15.0228 174.687 14.1123 176.822 13.4196 178.682M74.9834 15.3648L76.7072 19.6742L78.4309 23.9836C78.7182 24.8455 79.1204 26.7416 78.4309 27.4311C78.0105 27.8516 77.5686 28.5072 77.2227 29.085C76.8873 29.6452 76.2949 30.0168 75.642 30.0168C74.7604 30.0168 73.7297 30.0168 73.2597 30.0168C72.7603 30.0168 71.6281 29.7154 70.7142 29.4401C70.1499 29.27 69.7256 28.8087 69.5826 28.2369L69.0017 25.9133C68.9676 25.7765 68.9503 25.6361 68.9503 25.4952V22.6668C68.9503 22.3992 69.0126 22.1353 69.1323 21.8959L70.674 18.8124L72.3978 15.3648L72.6097 15.047C73.225 14.124 74.6326 14.3125 74.9834 15.3648Z" stroke="#B3C3E6" stroke-width="1.72321"/>
</svg>
