<svg width="129" height="144" viewBox="0 0 129 144" fill="none" xmlns="http://www.w3.org/2000/svg">
<path d="M84.3015 66.9892V91.8708L80.4735 95.6988H55.5918L47.9364 98.7485L54.851 100.662H79.7327L84.302 105.269L84.3015 135.892L86.2154 139.72L88.1294 135.892V105.269L91.9574 100.662H116.839L122.581 98.7485L116.839 96.8345H91.9574L88.1294 91.8708V66.9892L86.2154 63.1612L84.3015 66.9892Z" fill="#B3C3E6"/>
<path d="M51.7644 0V40.1935M51.7644 40.1935L42.1945 47.8494L0.0870208 49.7634L42.1945 51.6774L47.9364 57.4193M51.7644 40.1935L57.5063 47.8494L95.7858 49.7634L57.5063 51.6774L47.9364 57.4193M47.9364 57.4193V89.9569M84.3015 66.9892V91.8708L80.4735 95.6988H55.5918L47.9364 98.7485L54.851 100.662H79.7327L84.302 105.269L84.3015 135.892L86.2154 139.72L88.1294 135.892V105.269L91.9574 100.662H116.839L122.581 98.7485L116.839 96.8345H91.9574L88.1294 91.8708V66.9892L86.2154 63.1612L84.3015 66.9892Z" stroke="#B3C3E6" stroke-width="3.81252"/>
</svg>
