<svg width="1093" height="735" viewBox="0 0 1093 735" fill="none" xmlns="http://www.w3.org/2000/svg">
<path d="M933.26 673.304H969.39H992.989H1019.31C1026.18 673.304 1039.54 670.673 1055.56 662.093C1057.41 661.103 1059.06 659.772 1060.48 658.223L1065.42 652.805C1067.94 650.046 1069.64 646.636 1070.32 642.963L1070.68 641.001C1071.53 636.401 1070.82 631.592 1068.13 627.762C1065.06 623.377 1061.2 618.948 1058.34 618.689C1052.94 618.199 1032.06 603.006 1029.34 603.496C1027.16 603.888 1001.81 601.046 989.402 599.576L955.396 592.616C953.243 592.176 951.149 591.385 949.282 590.227C932.463 579.805 943.301 580.441 930.361 566.467C924.091 559.697 926.483 554.589 930.889 550.761C937.916 544.656 950.398 540.477 959.468 538.379L989.402 531.455L1032.02 520.89C1044.73 518.44 1048.36 518.44 1064.69 510.598C1081.03 502.757 1083.75 490.015 1079.22 482.664C1074.68 475.313 1060.2 464.315 1052.94 459.904C1045.68 455.493 1019.31 443.458 1006.6 435.617C993.896 427.775 980.282 417.974 980.282 414.053C980.282 410.133 973.021 401.801 973.021 398.371C973.021 394.94 977.602 383.942 990.309 380.021C1003.02 376.101 1010.23 369.456 1019.31 363.085C1028.39 356.714 1039.32 355.518 1046.58 351.107C1053.85 346.696 1055.66 335.424 1057.48 330.524C1059.07 326.212 1055.05 323.418 1049.12 316.136C1047.4 314.028 1045.37 312.176 1043.02 310.809L1036.69 307.13C1035.42 306.392 1034.08 305.796 1032.68 305.353L1019.31 301.119L999.392 296.091C995.234 295.041 991.482 292.723 988.508 289.633C982.137 283.016 972.358 273.057 973.021 269.481C973.928 264.58 978.466 250.368 980.282 245.957C982.097 241.546 1003.02 232.018 1010.28 220.256C1017.54 208.495 1030.25 201.633 1038.42 197.223C1046.58 192.812 1061.97 185.187 1071.05 179.797C1080.12 174.406 1087.43 170.759 1088.34 163.408C1089.24 156.056 1088.34 150.666 1082.89 145.275C1077.44 139.884 1029.3 122.948 1019.31 119.517C1009.33 116.087 999.343 90.1126 1003.88 84.7218C1006.67 81.4093 1009.13 78.0151 1011.67 73.73C1015.03 68.0447 1014.67 60.9788 1011.4 55.2385L1010.04 52.8471C1007.3 48.0324 1002.68 44.5686 997.285 43.3049C990.189 41.6432 982.645 39.9082 982.141 39.9082C981.496 39.9082 966.987 38.1075 957.385 36.9028C955.144 36.6216 952.875 36.7213 950.667 37.1982L925.859 42.5561C923.463 43.0735 921.184 44.0267 919.133 45.3682L912.657 49.604C909.403 51.7329 905.583 53.1225 902.175 54.9957C899.112 56.6791 894.868 58.7477 886.793 58.7477C873.178 58.7477 859.564 54.8271 855.025 52.8668C850.487 50.9065 839.595 40.6149 831.426 33.7538C823.257 26.8927 825.116 28.6364 816.039 23.7357C806.963 18.835 795.163 18.5614 783.364 18.5614C771.564 18.5614 762.488 23.2456 756.134 29.1266C749.78 35.0076 745.242 36.4777 739.796 40.3983C734.35 44.3189 696.229 44.5355 690.783 44.5355C685.337 44.5355 645.4 34.7339 632.693 27.8728C631.571 27.2672 630.549 26.7058 629.616 26.1854C623.528 22.7872 615.288 18.2121 608.894 15.4307C605.754 14.0646 602.687 12.9513 599.287 12.5428L580.703 10.3102C579.063 10.1132 577.405 10.1201 575.766 10.3308L557.833 12.6368C555.096 12.9888 552.452 13.888 550.136 15.3881C544.384 19.1129 536.712 24.6827 535.53 27.8728C533.715 32.7735 510.159 37.9479 500.175 37.9479C494.716 37.9479 487.373 35.9893 480.663 34.749C475.185 33.7364 469.88 31.3901 465.834 27.5611C462.291 24.2081 458.13 20.6154 454.749 18.5614C451.709 16.715 448.537 14.5197 445.856 12.5653C442.153 9.86553 437.734 8.26266 433.151 8.30089C409.996 8.49406 371.975 9.64017 362.168 13.1705C348.553 18.0712 335.846 22.9721 324.046 27.8728C312.247 32.7735 280.479 40.6149 271.402 40.6149C262.325 40.6149 245.988 42.0851 231.465 40.6149C216.943 39.1447 203.328 27.8728 196.974 22.9721C190.62 18.0714 175.19 13.1705 169.744 8.26983C165.388 4.34928 153.407 3.69575 147.961 3.85906C143.422 3.6957 133.438 3.46699 129.807 3.85906C125.269 4.34913 118.008 10.7201 110.747 13.1705C106.801 14.5021 107.099 18.9242 108.454 22.9037C109.612 26.3002 110.747 29.7658 110.747 33.3539V47.4759C110.747 51.3965 96.2242 58.7476 89.8706 62.1782C83.517 65.6087 60.8257 70.9995 44.4878 77.3705C36.3843 80.5306 28.7924 83.3515 23.1831 85.3895C18.2329 87.1881 14.1282 90.797 11.8706 95.5555C8.0155 103.681 3.64307 113.353 3.64307 115.106C3.64307 117.131 9.46704 132.12 13.5981 142.404C14.8032 145.404 16.7334 148.05 19.2042 150.135L38.9009 166.752C42.5088 169.796 47.077 171.465 51.7974 171.465H72.6252C82.6094 172.772 104.212 175.484 110.747 175.876C115.234 176.145 124.541 182.436 132.382 188.468C138.191 192.936 140.48 200.412 139.649 207.694C138.856 214.634 138.898 221.209 141.607 221.453C145.627 221.815 130.378 232.219 120.392 238.573C118.811 239.579 117.101 240.335 115.299 240.847C103.738 244.132 84.1454 249.644 80.7941 250.368C78.395 250.886 70.5798 256.425 63.3713 261.868C57.3027 266.45 54.5887 274.182 56.2076 281.612L59.0195 294.516C60.1738 299.814 63.4296 304.416 68.041 307.268L87.946 319.579C99.322 326.615 100.719 342.619 90.7335 351.519L71.4498 368.707C62.1362 377.008 62.6133 391.717 72.4451 399.398L88.5364 411.968C93.3884 415.758 96.2242 421.572 96.2242 427.729V440.464C96.2242 444.337 95.0998 448.126 92.9875 451.372L74.0935 480.407C73.119 481.905 71.9482 483.265 70.6124 484.452L53.4268 499.717C47.9218 504.607 45.549 512.127 47.25 519.291L51.9807 539.214C53.0072 543.537 55.4438 547.395 58.9062 550.18L94.2778 578.624C95.5704 579.663 96.7262 580.857 97.7244 582.181C101.99 587.843 108.816 596.87 110.747 599.302C111.825 600.661 113.393 604.558 114.921 608.9C117.56 616.395 115.01 624.694 108.728 629.561C103.53 633.587 98.3177 637.34 96.2242 638.018C91.6859 639.488 64.4563 648.31 53.5643 651.25C47.3882 652.918 42.0631 660.1 38.6237 666.411C36.2771 670.716 36.3564 675.842 38.2094 680.382C40.4172 685.791 43.0328 691.792 44.4878 693.887C47.2108 697.807 76.2557 699.278 83.517 698.788C90.7782 698.297 145.238 694.867 153.407 689.966C161.576 685.065 169.744 686.536 172.467 681.635C173.766 679.298 178.031 676.188 181.265 674.056C183.797 672.387 186.747 671.504 189.772 671.286L223.929 668.827C225.319 668.727 226.715 668.772 228.095 668.962L255.086 672.681C258.059 673.091 260.901 674.164 263.403 675.822L274.004 682.847C277.617 685.241 280.355 688.744 281.805 692.829L285.06 702.002L286.829 709.221C288.517 716.115 293.734 721.598 300.536 723.627L321.248 729.808C323.103 730.361 325.03 730.643 326.966 730.643H350.095C352.081 730.643 354.049 730.347 355.95 729.773C367.866 726.174 388.107 720.351 392.12 720.351C396.22 720.351 409.212 712.252 416.277 707.485C417.118 706.918 417.993 706.407 418.906 705.966L450.438 690.733C451.494 690.223 452.587 689.808 453.717 689.492C468.765 685.283 496.845 677.714 501.039 677.714C505.166 677.714 531.338 673.317 545.917 670.77C547.464 670.5 549.029 670.412 550.597 670.507L593.352 673.121C595.335 673.242 597.289 673.658 599.149 674.355L640.818 689.966L683.478 703.198L711.616 713L741.215 719.659C743.253 720.117 745.351 720.254 747.431 720.063L792.397 715.94L846.148 703.77C847.823 703.39 849.443 702.797 850.967 702.003L872.376 690.856C873.514 690.264 874.705 689.783 875.934 689.419L927.581 674.127C929.425 673.581 931.337 673.304 933.26 673.304Z" stroke="#B3C3E6" stroke-width="7.28614"/>
</svg>
