<svg width="1419" height="1370" viewBox="0 0 1419 1370" fill="none" xmlns="http://www.w3.org/2000/svg">
<path d="M205.499 1258.86H158.806H128.101H93.8532C84.7614 1258.86 66.9212 1253.75 45.5937 1236.99C43.9124 1235.67 42.4885 1234.05 41.344 1232.25L31.2219 1216.27C29.6555 1213.8 28.6503 1211.02 28.2772 1208.11L25.9517 1190.02C25.5246 1186.7 25.9163 1183.32 27.2408 1180.24C31.4062 1170.57 38.2992 1157.11 43.0718 1156.49C50.1011 1155.57 77.2633 1127.09 80.8062 1128.01C83.6406 1128.74 116.629 1123.42 132.769 1120.66L177.203 1107.56C179.868 1106.77 182.376 1105.43 184.457 1103.59C207.072 1083.58 192.621 1085 209.588 1058.6C220.623 1041.43 211.035 1029.97 202.235 1022.43C195.693 1016.83 186.362 1010.83 178.19 1008.11L132.769 992.975L77.3199 973.171C60.7866 968.579 56.0625 968.579 34.8051 953.881C13.5477 939.183 10.0048 915.3 15.9096 901.521C21.8145 887.742 40.6534 867.127 50.1011 858.859C59.5488 850.592 93.8532 828.033 110.387 813.336C126.921 798.638 144.635 780.266 144.635 772.917C144.635 765.569 154.083 749.952 154.083 743.522C154.083 737.092 148.121 716.477 131.588 709.128C115.054 701.779 105.663 689.325 93.8532 677.383C82.0433 665.441 67.8156 663.198 58.3679 654.931C48.9201 646.663 46.5582 625.536 44.1963 616.35C41.995 607.789 47.9999 602.419 56.475 586.856C57.7505 584.514 59.4211 582.398 61.4655 580.685L71.6429 572.16C73.0216 571.005 74.5498 570.041 76.186 569.295L93.8532 561.234L121.178 551.297C125.647 549.672 129.407 546.529 132.03 542.563C140.09 530.377 155.014 509.173 154.083 501.931C152.902 492.745 146.997 466.105 144.635 457.838C142.273 449.571 115.055 431.712 105.607 409.665C96.1586 387.619 79.6253 374.758 68.9966 366.491C58.3679 358.224 38.348 343.932 26.5381 333.828C14.7282 323.723 5.22436 316.887 4.0434 303.108C2.86243 289.329 4.0433 279.224 11.1291 269.12C18.2149 259.015 80.8626 227.27 93.8532 220.84C106.844 214.41 119.834 165.724 113.93 155.62C108.851 146.928 104.604 137.936 99.7571 124.484C98.1514 120.027 98.2962 115.134 100.039 110.728L108.116 90.3087C110.271 84.8626 114.701 80.6304 120.249 78.753C130.065 75.4311 141.506 71.6214 142.217 71.6214C143.045 71.6214 161.505 68.3225 173.997 66.0656C177.171 65.4922 180.435 65.6916 183.514 66.6497L215.746 76.6782C218.651 77.5818 221.311 79.1358 223.525 81.222L233.332 90.4635C237.044 93.9623 241.956 96.4701 245.945 99.65C249.956 102.847 255.488 106.934 266.274 106.934C283.989 106.934 301.703 99.5852 307.608 95.9108C313.513 92.2364 327.685 72.9459 338.313 60.0855C348.942 47.2252 346.524 50.4935 358.333 41.3076C370.143 32.1218 385.496 31.609 400.848 31.609C416.201 31.609 428.01 40.3889 436.277 51.4122C444.544 62.4355 450.449 65.1912 457.535 72.54C464.62 79.8887 514.221 80.2947 521.307 80.2947C528.393 80.2947 580.355 61.9226 596.889 49.0622C600.23 46.4636 602.895 44.2985 605.022 42.4978L605.461 42.1263C611.036 37.4059 617.72 31.746 623.956 28.0941C625.092 27.4284 626.223 26.7514 627.292 26.09C631.552 23.4543 636.294 21.0303 641.23 20.176L664.214 16.1982C666.551 15.7939 668.94 15.808 671.272 16.2399L694.354 20.516C697.848 21.1632 701.118 22.7101 703.726 25.1229C711.263 32.0961 721.731 42.9269 723.309 49.0622C725.67 58.248 756.319 67.947 769.31 67.947C776.554 67.947 786.349 64.1278 795.219 61.8134C801.807 60.0943 808.168 56.5998 812.124 51.0583C817.08 44.1168 823.405 35.9929 828.415 31.609C832.817 27.7567 837.433 23.0941 841.142 19.146C845.142 14.8887 850.662 12.3064 856.503 12.3765C886.63 12.7382 936.11 14.8861 948.873 21.5043C966.588 30.6901 983.121 39.8764 998.474 49.0622C1013.83 58.248 1055.16 72.9459 1066.97 72.9459C1078.78 72.9459 1100.04 75.7017 1118.93 72.9459C1137.83 70.1901 1155.54 49.0622 1163.81 39.8764C1172.08 30.6906 1192.15 21.5043 1199.24 12.3184C1204.91 4.96979 1220.5 3.74482 1227.58 4.05091C1233.49 3.74471 1246.48 3.31603 1251.2 4.05091C1257.11 4.96951 1266.55 16.9113 1276 21.5043C1282.49 24.6588 1280.16 37.0666 1277.38 45.3583C1276.54 47.8342 1276 50.4024 1276 53.0139V85.8061C1276 93.1549 1294.9 106.934 1303.16 113.364C1311.43 119.794 1340.95 129.899 1362.21 141.841C1374.16 148.551 1385.25 154.446 1392.7 158.315C1397.37 160.738 1400.96 164.834 1402.63 169.822C1407.98 185.86 1415.36 208.831 1415.36 212.573C1415.36 216.676 1406.49 249.205 1401.14 268.26C1400.39 270.918 1399.1 273.382 1397.34 275.514L1368.21 310.915C1364.41 315.535 1358.75 318.211 1352.76 318.211H1327.47C1326.23 318.211 1325 318.326 1323.77 318.555C1310.14 321.106 1284.12 325.777 1276 326.479C1268.87 327.095 1252.39 344.544 1241.45 357.385C1237.82 361.644 1236.35 367.283 1237.04 372.837C1239.05 389.185 1240.59 411.293 1235.85 411.908C1230.54 412.596 1251.01 432.632 1263.99 444.489C1265.68 446.036 1267.63 447.258 1269.75 448.127C1284.75 454.267 1310.58 464.739 1314.97 466.105C1318.86 467.315 1333.68 483.128 1344.29 495.003C1348.2 499.375 1349.9 505.271 1349.02 511.069L1342.03 557.253C1341.34 561.869 1339.05 566.095 1335.56 569.201L1289.98 609.808C1282.12 616.818 1281.03 628.729 1287.51 637.043L1340.17 704.663C1346.1 712.276 1345.75 723.036 1339.34 730.249L1299.95 774.58C1296.69 778.243 1294.9 782.972 1294.9 787.872V829.235C1294.9 832.075 1295.5 834.883 1296.67 837.472L1324.61 899.331C1325.27 900.785 1326.1 902.156 1327.08 903.414L1356.81 941.454C1360.25 945.861 1361.69 951.51 1360.78 957.029L1351.32 1014.46C1350.72 1018.1 1349.13 1021.5 1346.72 1024.28L1296.41 1082.57C1295.4 1083.73 1294.54 1085.01 1293.82 1086.38C1288.38 1096.78 1278.65 1115.34 1276 1120.15C1273.8 1124.14 1270.03 1139.85 1267.35 1152.12C1266.06 1158.03 1267.61 1164.2 1271.55 1168.8C1280.01 1178.63 1291.2 1190.99 1294.9 1192.72L1294.9 1192.72C1300.81 1195.48 1336.23 1212.01 1350.4 1217.52C1360.31 1221.37 1368.53 1240.94 1372.55 1253.78C1373.59 1257.09 1373.56 1260.61 1372.65 1263.95C1369.56 1275.29 1364.64 1292.4 1362.21 1297.44C1358.67 1304.79 1320.88 1307.54 1311.43 1306.62C1301.98 1305.7 1231.12 1299.27 1220.5 1290.09C1209.87 1280.9 1199.24 1283.66 1195.7 1274.47C1193.93 1269.9 1187.97 1263.75 1183.71 1259.76C1180.81 1257.04 1177.05 1255.47 1173.09 1255.06L1129.02 1250.49C1127.03 1250.29 1125.02 1250.38 1123.06 1250.77L1088.03 1257.72C1084.3 1258.46 1080.86 1260.25 1078.11 1262.88L1060.56 1279.63C1057.8 1282.26 1055.86 1285.62 1054.95 1289.32L1049.2 1312.65L1045.18 1336.31C1044.04 1343 1039.59 1348.66 1033.35 1351.34L1002.26 1364.7C999.761 1365.78 997.072 1366.33 994.355 1366.33H964.903C962.12 1366.33 959.378 1365.75 956.826 1364.64C941.304 1357.89 915.108 1347.04 909.901 1347.04C904.487 1347.04 887.153 1331.4 878.061 1322.53C877.238 1321.72 876.36 1320.99 875.415 1320.33L833.797 1291.37C832.574 1290.52 831.267 1289.81 829.885 1289.25C810.339 1281.37 773.654 1267.12 768.185 1267.12C762.841 1267.12 729.079 1258.96 710.061 1254.17C707.881 1253.63 705.631 1253.44 703.392 1253.64L648.298 1258.49C645.584 1258.73 642.947 1259.52 640.549 1260.82L586.316 1290.09L530.811 1314.89L495.56 1332.58C494.655 1333.03 493.717 1333.42 492.754 1333.73L455.99 1345.65C453.157 1346.56 450.154 1346.84 447.201 1346.45L390.925 1339.02C389.707 1338.85 388.507 1338.58 387.34 1338.2L319.025 1315.92C316.939 1315.24 314.979 1314.22 313.224 1312.9L284.741 1291.54C283.457 1290.57 282.062 1289.77 280.585 1289.14L213.35 1260.46C210.867 1259.4 208.197 1258.86 205.499 1258.86Z" stroke="#B3C3E6" stroke-width="7.28614"/>
</svg>
